<svg width="255" height="360" viewBox="0 0 255 360" fill="none" xmlns="http://www.w3.org/2000/svg">
<rect x="0.996094" y="0.997223" width="254.004" height="359.003" rx="20" fill="#FE710F"/>
<path d="M0 22.3489C0 11.7217 8.26518 2.96129 18.8817 2.48403C58.2527 0.714097 146.913 -2.51153 164.355 3.39849C186.923 11.0451 104.337 117.176 88.6523 154.571C79.4117 176.602 50.2875 198.058 27.9164 211.969C15.3518 219.782 0 210.432 0 195.637V22.3489Z" fill="#FA6200"/>
<path d="M0.996094 21.4848C0.996094 11.3325 8.59712 2.79398 18.722 2.04826C35.2373 0.831869 58.7031 -0.0518043 68.2319 3.67501C83.6368 9.70004 67.5901 49.6985 60.8703 98.1386C55.6473 135.789 22.3718 114.911 7.80716 103.743C3.34234 100.319 0.996094 94.9322 0.996094 89.3057V21.4848Z" fill="#C94F14"/>
</svg>
