<svg width="255" height="360" viewBox="0 0 255 360" fill="none" xmlns="http://www.w3.org/2000/svg">
<rect width="255" height="360" rx="20" fill="#FE710F"/>
<path d="M0 20C0 8.95431 8.9543 0 20 0H90.6232C102.563 0 111.884 10.4428 112.46 22.3692C118.263 142.337 247.485 358 132.529 358C70.8821 358 37.7196 358 19.9841 358C8.93842 358 0 349.046 0 338V20Z" fill="#FA6200"/>
<path d="M2 167.243C2 126.557 69.5 167.243 90.0774 203C110.655 238.758 171.508 359 90.0774 359C55.8449 359 34.8287 359 21.9666 359C10.9209 359 2 350.088 2 339.042C2 296.618 2 198.776 2 167.243Z" fill="#C94F14"/>
<path d="M2 254.273C2 232.053 41.6784 254.273 53.7744 273.802C65.8704 293.33 101.641 359 53.7744 359C39.727 359 29.4654 359 21.9776 359C10.9319 359 2 350.051 2 339.005C2 313.117 2 269.514 2 254.273Z" fill="#703319"/>
</svg>
