<svg width="255" height="360" viewBox="0 0 255 360" fill="none" xmlns="http://www.w3.org/2000/svg">
<rect x="0.99585" width="254.004" height="359.003" rx="20" fill="#FE710F"/>
<path d="M51.3002 47.3701C95.2634 13.1908 191.639 4.1541 233.607 1.80583C244.742 1.18276 253.804 10.1232 253.804 21.2762V338C253.804 349.046 244.85 358 233.804 358H19.7352C8.86383 358 0.0146897 349.42 0.00122964 338.548C-0.0757344 276.386 3.61367 84.444 51.3002 47.3701Z" fill="#FA6200"/>
<path d="M49.9218 114.654C103.053 68.848 254.8 36.5278 254.8 20V334.314C254.8 347.348 242.601 356.792 230.138 352.978C195.609 342.41 134.317 320.781 109.595 294.072C74.2888 255.928 -3.20917 160.459 49.9218 114.654Z" fill="#C94F14"/>
<path d="M103.097 142.604C137.411 98.0106 254.556 104.5 254.556 82V301.696C254.556 315.645 240.74 325.043 228.234 318.866C205.594 307.685 174.484 289.218 160.778 266.898C137.976 229.763 68.7836 187.197 103.097 142.604Z" fill="#703319"/>
</svg>
