<svg width="258" height="361" viewBox="0 0 258 361" fill="none" xmlns="http://www.w3.org/2000/svg">
<rect x="2.35815" y="1" width="255" height="360" rx="20" fill="#FE710F"/>
<path d="M132.359 72C96.5399 44.3778 54.557 23.2466 27.9613 11.2278C15.2291 5.47395 1.35864 14.9166 1.35864 28.8886V338.329C1.35864 348.845 9.45012 357.521 19.9644 357.717C66.5953 358.59 182.068 354.647 143.858 291.5C96.358 213 189.904 116.377 132.359 72Z" fill="#FA6200"/>
<path d="M1.35817 77.9787C1.35817 37.2933 68.8582 77.9786 89.4356 113.736C110.013 149.494 147.788 314.5 66.3583 314.5C60.431 314.5 55.0223 314.619 50.088 314.84C30.7574 315.706 1.35817 295.047 1.35817 275.697C1.35817 207.897 1.35817 104.68 1.35817 77.9787Z" fill="#C94F14"/>
</svg>
