<svg width="255" height="360" viewBox="0 0 255 360" fill="none" xmlns="http://www.w3.org/2000/svg">
<rect x="2.33655" y="0.997223" width="252.663" height="359.003" rx="20" fill="#FE710F"/>
<path d="M131.146 71.8006C95.7758 44.3484 54.3396 23.3254 27.9741 11.3191C15.242 5.52115 1.34619 14.9642 1.34619 28.9543V337.348C1.34619 347.861 9.4293 356.535 19.9403 356.73C66.2465 357.588 180.356 353.592 142.54 290.693C95.4751 212.41 188.164 116.054 131.146 71.8006Z" fill="#FA6200"/>
<path d="M1.34573 77.7626C1.34573 37.19 68.2272 77.7626 88.6161 113.421C109.005 149.08 146.434 313.629 65.7502 313.629C60.1986 313.629 55.106 313.735 50.4356 313.933C31.0718 314.753 1.34573 293.836 1.34573 274.454C1.34573 206.836 1.34573 104.327 1.34573 77.7626Z" fill="#C94F14"/>
</svg>
