<svg width="255" height="360" viewBox="0 0 255 360" fill="none" xmlns="http://www.w3.org/2000/svg">
<rect x="254.323" y="360" width="254.323" height="359.003" rx="20" transform="rotate(180 254.323 360)" fill="#FE710F"/>
<path d="M203.458 312.632C159.255 346.837 62.3131 355.862 20.198 358.202C9.06273 358.821 2.06237e-06 349.88 2.06237e-06 338.728V21.9945C2.06237e-06 10.9488 8.95431 1.99445 20 1.99445H235.266C246.137 1.99445 254.985 10.5736 254.999 21.4442C255.076 83.6053 251.37 275.556 203.458 312.632Z" fill="#FA6200"/>
<path d="M205.453 259.778C152.173 308.279 -3.28707e-05 326.5 -3.28707e-05 344V26.0391C-3.28707e-05 12.8964 12.3893 3.44351 24.8942 7.48812C59.5497 18.6972 120.86 41.571 145.612 69.8062C181.018 110.194 258.733 211.278 205.453 259.778Z" fill="#C94F14"/>
<path d="M152.093 217.396C117.737 261.989 0.444993 255.5 0.444993 278V58.2912C0.444993 44.346 14.2539 34.9471 26.7611 41.1145C49.4329 52.2943 80.6096 70.7694 94.3401 93.1024C117.171 130.237 186.45 172.803 152.093 217.396Z" fill="#703319"/>
</svg>
