<svg width="255" height="360" viewBox="0 0 255 360" fill="none" xmlns="http://www.w3.org/2000/svg">
<rect x="252.664" y="359.003" width="252.663" height="359.003" rx="20" transform="rotate(180 252.664 359.003)" fill="#FE710F"/>
<path d="M123.854 288.199C159.224 315.652 200.66 336.675 227.026 348.681C239.758 354.479 253.654 345.036 253.654 331.046V22.6516C253.654 12.1388 245.571 3.46533 235.06 3.27048C188.753 2.41205 74.6436 6.4078 112.46 69.3075C159.525 147.59 66.8359 243.946 123.854 288.199Z" fill="#FA6200"/>
<path d="M253.654 282.237C253.654 322.81 186.773 282.237 166.384 246.579C145.995 210.92 108.566 46.3712 189.25 46.3712C194.801 46.3712 199.894 46.265 204.564 46.0672C223.928 45.2469 253.654 66.1644 253.654 85.5455C253.654 153.164 253.654 255.673 253.654 282.237Z" fill="#C94F14"/>
</svg>
