<svg width="255" height="360" viewBox="0 0 255 360" fill="none" xmlns="http://www.w3.org/2000/svg">
<rect x="254.004" y="359.003" width="254.004" height="359.003" rx="20" transform="rotate(180 254.004 359.003)" fill="#FE710F"/>
<path d="M255 337.651C255 348.278 246.735 357.039 236.118 357.516C196.747 359.286 108.087 362.512 90.6445 356.602C68.0773 348.955 150.663 242.824 166.348 205.429C175.588 183.398 204.712 161.942 227.084 148.031C239.648 140.218 255 149.568 255 164.363V337.651Z" fill="#FA6200"/>
<path d="M254.004 338.515C254.004 348.667 246.403 357.206 236.278 357.952C219.763 359.168 196.297 360.052 186.768 356.325C171.363 350.3 187.41 310.301 194.13 261.861C199.353 224.211 232.628 245.089 247.193 256.257C251.658 259.681 254.004 265.068 254.004 270.694V338.515Z" fill="#C94F14"/>
</svg>
