<svg width="255" height="360" viewBox="0 0 255 360" fill="none" xmlns="http://www.w3.org/2000/svg">
<rect x="255" y="360" width="255" height="360" rx="20" transform="rotate(180 255 360)" fill="#FE710F"/>
<path d="M255 340C255 351.046 246.046 360 235 360H164.377C152.437 360 143.116 349.557 142.54 337.631C136.737 217.663 7.51469 2 122.471 2C184.118 2 217.28 2 235.016 2C246.062 2 255 10.9543 255 22V340Z" fill="#FA6200"/>
<path d="M253 192.757C253 233.443 185.5 192.757 164.923 157C144.345 121.242 83.4925 1.00002 164.923 1.00002C199.155 1.00002 220.171 1.00002 233.033 1.00002C244.079 1.00002 253 9.91209 253 20.9578C253 63.3817 253 161.224 253 192.757Z" fill="#C94F14"/>
<path d="M253 105.727C253 127.947 213.322 105.727 201.226 86.1985C189.13 66.6697 153.359 1 201.226 1C215.273 1 225.535 1 233.022 1C244.068 1 253 9.94915 253 20.9948C253 46.8828 253 90.4864 253 105.727Z" fill="#703319"/>
</svg>
