<svg width="46" height="46" viewBox="0 0 46 46" fill="none" xmlns="http://www.w3.org/2000/svg">
<rect width="46" height="46" rx="10" fill="#FE710F"/>
<path d="M28 13H18C15.2386 13 13 15.2386 13 18V28C13 30.7614 15.2386 33 18 33H28C30.7614 33 33 30.7614 33 28V18C33 15.2386 30.7614 13 28 13Z" fill="white"/>
<path d="M27 22.37C27.1234 23.2022 26.9813 24.0522 26.5938 24.799C26.2063 25.5458 25.5931 26.1514 24.8416 26.5297C24.0901 26.9079 23.2384 27.0396 22.4078 26.9059C21.5771 26.7723 20.8098 26.3801 20.2148 25.7852C19.6199 25.1902 19.2277 24.4229 19.0941 23.5922C18.9604 22.7616 19.0921 21.9099 19.4703 21.1584C19.8486 20.4069 20.4542 19.7937 21.201 19.4062C21.9478 19.0187 22.7978 18.8766 23.63 19C24.4789 19.1259 25.2649 19.5215 25.8717 20.1283C26.4785 20.7351 26.8741 21.5211 27 22.37Z" fill="white"/>
<path d="M28.5 17.5H28.51M18 13H28C30.7614 13 33 15.2386 33 18V28C33 30.7614 30.7614 33 28 33H18C15.2386 33 13 30.7614 13 28V18C13 15.2386 15.2386 13 18 13ZM27 22.37C27.1234 23.2022 26.9813 24.0522 26.5938 24.799C26.2063 25.5458 25.5931 26.1514 24.8416 26.5297C24.0901 26.9079 23.2384 27.0396 22.4078 26.9059C21.5771 26.7723 20.8098 26.3801 20.2148 25.7852C19.6199 25.1902 19.2277 24.4229 19.0941 23.5922C18.9604 22.7616 19.0921 21.9099 19.4703 21.1584C19.8486 20.4069 20.4542 19.7937 21.201 19.4062C21.9478 19.0187 22.7978 18.8766 23.63 19C24.4789 19.1259 25.2649 19.5215 25.8717 20.1283C26.4785 20.7351 26.8741 21.5211 27 22.37Z" stroke="#FA6200" stroke-width="2" stroke-linecap="round" stroke-linejoin="round"/>
</svg>
